<svg width="current" height="current" viewBox="0 0 22 20" fill="none" xmlns="http://www.w3.org/2000/svg">
<path d="M10.1044 0.802447C10.4721 0.0623906 11.5279 0.0623893 11.8956 0.802445L14.3084 5.65871C14.454 5.95177 14.7338 6.15505 15.0575 6.20297L20.4217 6.99706C21.2392 7.11808 21.5654 8.12211 20.9752 8.7005L17.1022 12.4959C16.8685 12.725 16.7616 13.0539 16.8161 13.3766L17.7185 18.7236C17.856 19.5384 17.0019 20.159 16.2695 19.7764L11.463 17.2658C11.1729 17.1143 10.8271 17.1143 10.537 17.2658L5.73055 19.7764C4.99808 20.159 4.14399 19.5385 4.28151 18.7236L5.18391 13.3766C5.23837 13.0539 5.1315 12.725 4.89778 12.4959L1.02481 8.7005C0.4346 8.12211 0.76083 7.11808 1.57829 6.99706L6.94248 6.20297C7.2662 6.15505 7.54599 5.95177 7.6916 5.65871L10.1044 0.802447Z" fill="#DDDDDD"/>
</svg>
